{"title":"Byomkesh Phire Elo (2014) - 720p - DVDRip - x264 - AC3 - DDR","uid":13699319,"size":3016624313,"categoryP":"video","categoryS":"hd___movies","magnet":"?xt=urn:btih:f6b6fe772f7b1aceaba89e86bf91968746b0ca2d&amp;dn=Byomkesh+Phire+Elo+%282014%29+-+720p+-+DVDRip+-+x264+-+AC3+-+DDR&amp;tr=udp%3A%2F%2Ftracker.leechers-paradise.org%3A6969&amp;tr=udp%3A%2F%2Fzer0day.ch%3A1337&amp;tr=udp%3A%2F%2Fopen.demonii.com%3A1337&amp;tr=udp%3A%2F%2Ftracker.coppersurfer.tk%3A6969&amp;tr=udp%3A%2F%2Fexodus.desync.com%3A6969","seeders":1,"leechers":3,"uploader":"SaM","files":11,"time":1456755602,"description":"( A film by Anjan Dutta )\r\n\r\n\r\n\r\n\r\nUpscaled DVD Rip - 720p - x264 - ESub\r\n\r\n2.1 AC3 - MKV - 2.75 GB\r\n\r\n*2014*\r\n\r\nFormat : Matroska\r\nFormat version : Version 4 / Version 2\r\nFile size : 2.75 GiB\r\nDuration : 1h 46mn\r\nOverall bit rate mode : Variable\r\nOverall bit rate : 3 699 Kbps\r\nEncoded date : UTC 2016-02-28 05:20:26\r\nWriting application : mkvmerge v8.2.0 ('World of Adventure') 32bit\r\nWriting library : libebml v1.3.1 + libmatroska v1.4.2\r\n\r\nVideo\r\nID : 1\r\nFormat : AVC\r\nFormat/Info : Advanced Video Codec\r\nFormat profile :   \r\nFormat settings, CABAC : Yes\r\nFormat settings, ReFrames : 8 frames\r\nCodec ID : V_MPEG4/ISO/AVC\r\nDuration : 1h 46mn\r\nBit rate mode : Variable\r\nBit rate : 3 505 Kbps\r\nMaximum bit rate : 40.0 Mbps\r\nWidth : 1 280 pixels\r\nHeight : 640 pixels\r\nDisplay aspect ratio : 2.000\r\nFrame rate mode : Constant\r\nFrame rate : 25.000 fps\r\nColor space : YUV\r\nChroma subsampling : 4:2:0\r\nBit depth : 8 bits\r\nScan type : Progressive\r\nBits/(Pixel*Frame) : 0.171\r\nStream size : 2.60 GiB (95%)\r\nTitle : Byomkesh Phire Elo (2014) - 720p - DVDRip - x264 - AC3 - ESub [DDR]\r\nLanguage : Bengali\r\nDefault : Yes\r\nForced : No\r\n\r\nAudio\r\nID : 2\r\nFormat : AC-3\r\nFormat/Info : Audio Coding 3\r\nMode extension : CM (complete main)\r\nFormat settings, Endianness : Big\r\nCodec ID : A_AC3\r\nDuration : 1h 46mn\r\nBit rate mode : Constant\r\nBit rate : 192 Kbps\r\nChannel(s) : 2 channels\r\nChannel positions : Front: L R\r\nSampling rate : 48.0 KHz\r\nFrame rate : 31.250 fps (1536 spf)\r\nCompression mode : Lossy\r\nStream size : 146 MiB (5%)\r\nTitle : 2.1 AC3 [DDR]\r\nLanguage : Bengali\r\nDefault : Yes\r\nForced : No\r\n\r\n \nhttp://extraimago.com/image/a2b1 \nhttp://extraimago.com/image/a2bc \nhttp://extraimago.com/image/a2b7 \nhttp://extraimago.com/image/a2bs \nhttp://extraimago.com/image/a2bn \nhttp://extraimago.com/image/a2bj \nhttp://extraimago.com/image/a2bT\r\n\r\nMake sure it is Genuine DDR release @ ExtraTorrent.com\r\n            \nhttps://extratorrent.cc/            \nhttps://extratorrent.com/            \nhttp://extratorrent.ws/            \nhttps://etproxy.com/            \nhttps://extratorrentlive.com/            \nhttps://extratorrentonline.com/            \nhttps://etmirror.com/            \nhttps://extratorrent.works/            \nhttps://extratorrent.date/\r\n\r\n\r\nShare your Images with:\r\n            \nhttp://extraimago.com/\r\n\r\nHelp us by donating with Bitcoin: 1XeH1kKXWYbzZcFHokGiZ4d3MWW5WyXzU","torrent":{"xt":"urn:btih:f6b6fe772f7b1aceaba89e86bf91968746b0ca2d","amp;dn":"Byomkesh+Phire+Elo+%282014%29+-+720p+-+DVDRip+-+x264+-+AC3+-+DDR","amp;tr":["udp%3A%2F%2Ftracker.leechers-paradise.org%3A6969","udp%3A%2F%2Fzer0day.ch%3A1337","udp%3A%2F%2Fopen.demonii.com%3A1337","udp%3A%2F%2Ftracker.coppersurfer.tk%3A6969","udp%3A%2F%2Fexodus.desync.com%3A6969"],"infoHash":"f6b6fe772f7b1aceaba89e86bf91968746b0ca2d","infoHashBuffer":{"type":"Buffer","data":[246,182,254,119,47,123,26,206,171,168,158,134,191,145,150,135,70,176,202,45]},"announce":[],"urlList":[]}}